<?xml version="1.0" standalone="no"?><!DOCTYPE svg PUBLIC "-//W3C//DTD SVG 1.1//EN" "http://www.w3.org/Graphics/SVG/1.1/DTD/svg11.dtd"><svg t="1642064155156" class="icon" viewBox="0 0 1024 1024" version="1.1" xmlns="http://www.w3.org/2000/svg" p-id="6384" xmlns:xlink="http://www.w3.org/1999/xlink" width="200" height="200"><defs><style type="text/css"></style></defs><path d="M288 938.688h618.688a10.688 10.688 0 0 0 10.624-10.688V298.688H736a32 32 0 0 1-32-32V85.312H288a10.688 10.688 0 0 0-10.688 10.688v832c0 5.888 4.8 10.688 10.688 10.688z" fill="#FFFFFF" p-id="6385"></path><path d="M912.896 277.312l-187.52-187.52v176.896c0 5.888 4.736 10.624 10.624 10.624h176.896z" fill="#FFFFFF" p-id="6386"></path><path d="M929.28 263.552L739.2 73.344A31.744 31.744 0 0 0 716.48 64H288a32 32 0 0 0-32 32v832a32 32 0 0 0 32 32h618.688a32 32 0 0 0 32-32V286.144a31.872 31.872 0 0 0-9.408-22.592z m-203.968-173.824l187.584 187.584H736a10.688 10.688 0 0 1-10.688-10.624V89.728z m181.376 848.96H288a10.688 10.688 0 0 1-10.688-10.688v-832c0-5.888 4.8-10.688 10.688-10.688H704v181.376a32 32 0 0 0 32 32h181.312V928a10.688 10.688 0 0 1-10.624 10.688z" fill="#605E5C" opacity=".64" p-id="6387"></path><path d="M416 789.312h170.688A21.312 21.312 0 0 0 608 768v-117.312a21.312 21.312 0 0 0-21.312-21.376H416v160z" fill="#C8C6C4" p-id="6388"></path><path d="M768 789.312h-106.688a10.688 10.688 0 1 1 0-21.312H768a10.688 10.688 0 1 1 0 21.312z m0-64h-106.688a10.688 10.688 0 1 1 0-21.312H768a10.688 10.688 0 1 1 0 21.312z m0-64h-106.688a10.688 10.688 0 1 1 0-21.312H768a10.688 10.688 0 1 1 0 21.312zM629.312 544H490.688a10.688 10.688 0 1 1 0-21.312h138.624a10.688 10.688 0 1 1 0 21.312z m0-64H490.688a10.688 10.688 0 1 1 0-21.312h138.624a10.688 10.688 0 1 1 0 21.312z" fill="#7DBAB2" p-id="6389"></path><path d="M128 789.312h341.312A42.688 42.688 0 0 0 512 746.688V405.312a42.688 42.688 0 0 0-42.688-42.624H128a42.688 42.688 0 0 0-42.688 42.624v341.376c0 23.552 19.136 42.624 42.688 42.624z" fill="#077568" p-id="6390"></path><path d="M318.464 448c31.488 0 55.68 7.04 72.384 21.12 16.768 14.144 25.152 34.56 25.152 61.376 0 17.152-4.16 32.448-12.416 45.824a83.2 83.2 0 0 1-35.392 31.232 120.064 120.064 0 0 1-53.12 11.136h-48.384v96h-53.376V448h105.152z m-51.84 128h42.368c16.448 0 28.928-3.712 37.376-11.136 8.448-7.424 12.608-18.304 12.608-32.64 0-27.712-16.128-41.6-48.448-41.6h-43.84V576z" fill="#F9F7F7" p-id="6391"></path></svg>